G04 Layer_Physical_Order=1*
G04 Layer_Color=255*
%FSLAX44Y44*%
%MOMM*%
G71*
G01*
G75*
%ADD10R,1.2000X2.5000*%
%ADD11R,1.5000X1.4000*%
%ADD12R,4.0000X1.5000*%
%ADD13O,4.0000X1.5000*%
%ADD14R,2.3000X2.3000*%
%ADD15R,1.4000X1.5000*%
%ADD16R,0.8000X3.1000*%
%ADD17C,1.3000*%
%ADD18C,5.5000*%
G36*
X280646Y322740D02*
X280622Y322712D01*
X278151Y318680D01*
X276342Y314312D01*
X275238Y309714D01*
X274967Y306270D01*
X305000D01*
Y303730D01*
X274967D01*
X275238Y300286D01*
X275453Y299391D01*
X272765Y296040D01*
X268296Y293002D01*
X266463Y293393D01*
X258410Y297076D01*
Y319570D01*
X206410D01*
Y292570D01*
Y267878D01*
X148590D01*
X145327Y267448D01*
X142286Y266189D01*
X139675Y264185D01*
X117968Y242478D01*
X96910D01*
Y267170D01*
Y292570D01*
Y319570D01*
X44910D01*
Y292570D01*
Y267170D01*
Y240823D01*
X44828Y240789D01*
X42217Y238785D01*
X20295Y216863D01*
X18291Y214252D01*
X17032Y211211D01*
X16602Y207948D01*
Y143510D01*
X17032Y140247D01*
X18291Y137206D01*
X20295Y134595D01*
X63692Y91198D01*
Y78740D01*
Y58320D01*
X64122Y55057D01*
X65381Y52016D01*
X67385Y49405D01*
X79625Y37165D01*
X82236Y35161D01*
X85277Y33902D01*
X88540Y33472D01*
X170460D01*
Y28580D01*
X205460D01*
Y63580D01*
X170460D01*
Y58688D01*
X149764D01*
X141840Y63700D01*
Y77470D01*
X133300D01*
Y78740D01*
X132030D01*
Y93780D01*
X129448D01*
X127960Y103780D01*
X190642Y166462D01*
X215071D01*
X216386Y165917D01*
X219910Y165453D01*
X244910D01*
X248434Y165917D01*
X251718Y167278D01*
X254538Y169442D01*
X256702Y172262D01*
X258062Y175546D01*
X258526Y179070D01*
X258276Y180970D01*
X258410Y190970D01*
X258410Y190970D01*
Y211263D01*
X258410Y217970D01*
X258280Y218292D01*
X266314Y225103D01*
X267170Y224580D01*
X270630Y216013D01*
Y207540D01*
X270630D01*
X273580Y204350D01*
Y195580D01*
X283120D01*
Y193040D01*
X273580D01*
Y184270D01*
X281951D01*
X289767Y174270D01*
X289382Y171323D01*
X243220Y125160D01*
X231300D01*
Y113240D01*
X221748Y103688D01*
X205460D01*
Y108580D01*
X170460D01*
Y73580D01*
X205460D01*
Y78472D01*
X226970D01*
X230233Y78902D01*
X233274Y80161D01*
X235879Y82160D01*
X251300D01*
Y97580D01*
X295761Y142041D01*
X305000Y138214D01*
Y30133D01*
X300286Y29762D01*
X295688Y28658D01*
X291320Y26849D01*
X287288Y24378D01*
X283693Y21307D01*
X280622Y17712D01*
X278151Y13680D01*
X276342Y9312D01*
X275238Y4714D01*
X274867Y0D01*
X30133D01*
X29762Y4714D01*
X28658Y9312D01*
X26849Y13680D01*
X24378Y17712D01*
X21307Y21307D01*
X17712Y24378D01*
X13680Y26849D01*
X9312Y28658D01*
X4714Y29762D01*
X0Y30133D01*
Y274867D01*
X4714Y275238D01*
X9312Y276342D01*
X13680Y278151D01*
X17712Y280622D01*
X21307Y283693D01*
X24378Y287288D01*
X26849Y291320D01*
X28658Y295688D01*
X29762Y300286D01*
X30033Y303730D01*
X0D01*
Y306270D01*
X30033D01*
X29762Y309714D01*
X28658Y314312D01*
X26849Y318680D01*
X24378Y322712D01*
X24354Y322740D01*
X28964Y332740D01*
X276036D01*
X280646Y322740D01*
D02*
G37*
G36*
X206773Y240872D02*
X209870Y233203D01*
Y231770D01*
Y231140D01*
X232410D01*
Y228600D01*
X209870D01*
Y226537D01*
X206773Y218868D01*
X201010Y217078D01*
X183950D01*
X180687Y216648D01*
X177646Y215389D01*
X175035Y213385D01*
X86385Y124735D01*
X84381Y122124D01*
X83850Y120842D01*
X78001Y118392D01*
X72853Y117697D01*
X41818Y148732D01*
Y161744D01*
X48370Y169030D01*
X51818Y169030D01*
X69640D01*
Y179070D01*
X70910D01*
Y180340D01*
X93450D01*
Y182403D01*
X96910Y190970D01*
X96910Y197677D01*
Y217262D01*
X123190D01*
X126453Y217692D01*
X129494Y218951D01*
X132105Y220955D01*
X153812Y242662D01*
X201010D01*
X206773Y240872D01*
D02*
G37*
%LPC*%
G36*
X141840Y93780D02*
X134570D01*
Y80010D01*
X141840D01*
Y93780D01*
D02*
G37*
G36*
X247840Y61700D02*
X242570D01*
Y44930D01*
X247840D01*
Y61700D01*
D02*
G37*
G36*
X240030D02*
X234760D01*
Y44930D01*
X240030D01*
Y61700D01*
D02*
G37*
G36*
X247840Y42390D02*
X242570D01*
Y25620D01*
X247840D01*
Y42390D01*
D02*
G37*
G36*
X240030D02*
X234760D01*
Y25620D01*
X240030D01*
Y42390D01*
D02*
G37*
G36*
X93450Y177800D02*
X72180D01*
Y169030D01*
X93450D01*
Y177800D01*
D02*
G37*
%LPD*%
D10*
X76300Y78740D02*
D03*
X133300D02*
D03*
X114300D02*
D03*
X95300D02*
D03*
D11*
X280670Y237580D02*
D03*
Y217080D02*
D03*
D12*
X70910Y306070D02*
D03*
Y280670D02*
D03*
Y255270D02*
D03*
Y229870D02*
D03*
Y204470D02*
D03*
Y179070D02*
D03*
X232410Y306070D02*
D03*
Y280670D02*
D03*
Y255270D02*
D03*
Y229870D02*
D03*
Y204470D02*
D03*
D13*
Y179070D02*
D03*
D14*
X187960Y46080D02*
D03*
Y91080D02*
D03*
D15*
X303620Y194310D02*
D03*
X283120D02*
D03*
D16*
X241300Y43660D02*
D03*
Y103660D02*
D03*
D17*
X0Y305000D02*
X38410D01*
Y318748D01*
X45732Y326070D01*
X257588D01*
X264910Y318748D01*
Y305000D02*
Y318748D01*
Y305000D02*
X305000D01*
X209204Y115080D02*
X264910Y170786D01*
X280670Y195580D02*
Y217080D01*
X133300Y78740D02*
X160992D01*
X163960Y81708D01*
Y107758D01*
X171282Y115080D01*
X209204D01*
X264910Y170786D02*
Y179820D01*
X280670Y195580D01*
X114300Y107950D02*
X185420Y179070D01*
X95300Y115820D02*
X183950Y204470D01*
X131680Y179070D02*
X182480Y229870D01*
X70910Y179070D02*
X131680D01*
X114300Y78740D02*
Y107950D01*
X95300Y78740D02*
Y115820D01*
X185420Y179070D02*
X232410D01*
X183950Y204470D02*
X232410D01*
X182480Y229870D02*
X232410D01*
X265430Y34290D02*
X270710D01*
X305000Y0D01*
X0Y293370D02*
X29210Y264160D01*
X0Y293370D02*
Y305000D01*
X36830Y36830D02*
X39370D01*
X0Y0D02*
X36830Y36830D01*
X76300Y58320D02*
Y78740D01*
Y58320D02*
X88540Y46080D01*
X187960D01*
X303620Y194310D02*
Y246808D01*
Y167730D02*
Y194310D01*
X232410Y280670D02*
X262890D01*
X261420Y255270D02*
X279110Y237580D01*
X232410Y255270D02*
X261420D01*
X279110Y237580D02*
X280670D01*
X262890Y280670D02*
X286480Y257080D01*
X293348D01*
X303620Y246808D01*
X252730Y229870D02*
X265520Y217080D01*
X232410Y229870D02*
X252730D01*
X265520Y217080D02*
X280670D01*
X29210Y143510D02*
Y207948D01*
X51132Y229870D02*
X70910D01*
X29210Y207948D02*
X51132Y229870D01*
X226970Y91080D02*
X303620Y167730D01*
X187960Y91080D02*
X226970D01*
X76300Y78740D02*
Y96420D01*
X29210Y143510D02*
X76300Y96420D01*
X148590Y255270D02*
X232410D01*
X123190Y229870D02*
X148590Y255270D01*
X70910Y229870D02*
X123190D01*
D18*
X305000Y0D02*
D03*
Y305000D02*
D03*
X0D02*
D03*
Y0D02*
D03*
M02*
